<?xml version="1.0" encoding="UTF-8"?>
<svg viewBox="0 0 800 420" role="img" aria-labelledby="scoring-zones-title" class="w-full h-auto max-h-[260px]" xmlns="http://www.w3.org/2000/svg" xmlns:xlink="http://www.w3.org/1999/xlink"><title id="scoring-zones-title">Innleggssoner (A–F) – basert på Gard H. Kristiansens UEFA A-analyse</title><defs><linearGradient id="pitchGradient" x1="0%" y1="0%" x2="0%" y2="100%"><stop offset="0%" stop-color="#3b7d3c"/><stop offset="100%" stop-color="#226030"/></linearGradient><pattern id="pitchGrass" width="8" height="8" patternUnits="userSpaceOnUse"><rect width="8" height="8" fill="rgba(255,255,255,0.04)"/><rect width="8" height="4" fill="rgba(255,255,255,0.02)"/></pattern></defs><rect width="800" height="420" rx="24" fill="url(#pitchGradient)"/><rect width="800" height="420" rx="24" fill="url(#pitchGrass)"/><g transform="translate(20, 20)"><g><rect x="0" y="0" width="135.5" height="100" fill="rgba(255,255,255,0.06)" stroke="#dc2626" stroke-width="2"/><text x="67.75" y="50" text-anchor="middle" dominant-baseline="middle" fill="#fff" font-size="28" font-weight="700">C</text></g><g><rect x="0" y="100" width="135.5" height="100" fill="rgba(255,255,255,0.06)" stroke="#dc2626" stroke-width="2"/><text x="67.75" y="150" text-anchor="middle" dominant-baseline="middle" fill="#fff" font-size="28" font-weight="700">D</text></g><g><rect x="0" y="200" width="159.5" height="90" fill="rgba(255,255,255,0.06)" stroke="#dc2626" stroke-width="2"/><text x="79.75" y="245" text-anchor="middle" dominant-baseline="middle" fill="#fff" font-size="28" font-weight="700">E</text></g><g><rect x="0" y="290" width="159.5" height="90" fill="rgba(255,255,255,0.06)" stroke="#dc2626" stroke-width="2"/><text x="79.75" y="335" text-anchor="middle" dominant-baseline="middle" fill="#fff" font-size="28" font-weight="700">F</text></g><g><rect x="135.5" y="0" width="133.5" height="67" fill="rgba(255,255,255,0.15)" stroke="#dc2626" stroke-width="2"/><text x="202.25" y="33.5" text-anchor="middle" dominant-baseline="middle" fill="#fff" font-size="28" font-weight="700">A</text></g><g><polygon points="135.5,67 269,67 135.5,200" fill="rgba(255,255,255,0.15)" stroke="#dc2626" stroke-width="2"/><text x="180" y="111.33333333333333" text-anchor="middle" dominant-baseline="middle" fill="#fff" font-size="28" font-weight="700">B</text></g><g><rect x="624.5" y="0" width="135.5" height="100" fill="rgba(255,255,255,0.06)" stroke="#dc2626" stroke-width="2"/><text x="692.25" y="50" text-anchor="middle" dominant-baseline="middle" fill="#fff" font-size="28" font-weight="700">C</text></g><g><rect x="624.5" y="100" width="135.5" height="100" fill="rgba(255,255,255,0.06)" stroke="#dc2626" stroke-width="2"/><text x="692.25" y="150" text-anchor="middle" dominant-baseline="middle" fill="#fff" font-size="28" font-weight="700">D</text></g><g><rect x="600.5" y="200" width="159.5" height="90" fill="rgba(255,255,255,0.06)" stroke="#dc2626" stroke-width="2"/><text x="680.25" y="245" text-anchor="middle" dominant-baseline="middle" fill="#fff" font-size="28" font-weight="700">E</text></g><g><rect x="600.5" y="290" width="159.5" height="90" fill="rgba(255,255,255,0.06)" stroke="#dc2626" stroke-width="2"/><text x="680.25" y="335" text-anchor="middle" dominant-baseline="middle" fill="#fff" font-size="28" font-weight="700">F</text></g><g><rect x="491" y="0" width="133.5" height="67" fill="rgba(255,255,255,0.15)" stroke="#dc2626" stroke-width="2"/><text x="557.75" y="33.5" text-anchor="middle" dominant-baseline="middle" fill="#fff" font-size="28" font-weight="700">A</text></g><g><polygon points="491,67 624.5,67 624.5,200" fill="rgba(255,255,255,0.15)" stroke="#dc2626" stroke-width="2"/><text x="580" y="111.33333333333333" text-anchor="middle" dominant-baseline="middle" fill="#fff" font-size="28" font-weight="700">B</text></g><rect x="0" y="0" width="760" height="380" fill="none" stroke="rgba(255,255,255,0.4)" stroke-width="3"/><rect x="330" y="-8" width="100" height="10" fill="#fff" stroke="rgba(255,255,255,0.8)" stroke-width="2"/><rect x="269" y="0" width="222" height="67" fill="none" stroke="rgba(255,255,255,0.7)" stroke-width="2"/><rect x="135.5" y="0" width="489" height="200" fill="none" stroke="rgba(255,255,255,0.8)" stroke-width="3"/><circle cx="380" cy="133.33333333333331" r="4" fill="#fff"/><path d="M 291.36376586386046 200 A 110.9090909090909 110.9090909090909 0 0 0 468.63623413613954 200" fill="none" stroke="rgba(255,255,255,0.6)" stroke-width="2"/></g></svg>
