<?xml version="1.0" encoding="UTF-8"?>
<svg viewBox="0 0 800 420" role="img" aria-labelledby="landscape-pitch-template-title" class="w-full h-auto max-h-[260px]" xmlns="http://www.w3.org/2000/svg" xmlns:xlink="http://www.w3.org/1999/xlink"><title id="landscape-pitch-template-title">Liggende bane – halv</title><defs><linearGradient id="pitchGradient-landscape-template" x1="0%" y1="0%" x2="0%" y2="100%"><stop offset="0%" stop-color="#3b7d3c"/><stop offset="100%" stop-color="#226030"/></linearGradient><pattern id="pitchGrass-landscape-template" width="8" height="8" patternUnits="userSpaceOnUse"><rect width="8" height="8" fill="rgba(255,255,255,0.04)"/><rect width="8" height="4" fill="rgba(255,255,255,0.02)"/></pattern></defs><rect width="800" height="420" rx="24" fill="url(#pitchGradient-landscape-template)"/><rect width="800" height="420" rx="24" fill="url(#pitchGrass-landscape-template)"/><g transform="translate(20, 20)"><rect x="233.30882352941177" y="0" width="293.38235294117646" height="380" fill="none" stroke="rgba(255,255,255,0.55)" stroke-width="3" rx="2"/><g transform="translate(760 0) scale(-1 1)"><line x1="526.6911764705883" y1="0" x2="526.6911764705883" y2="380" stroke="rgba(255,255,255,0.55)" stroke-width="3"/><path d="M 526.6911764705883 138.86764705882354 A 51.13235294117647 51.13235294117647 0 0 0 526.6911764705883 241.13235294117646" fill="none" stroke="rgba(255,255,255,0.45)" stroke-width="3"/><rect x="233.30882352941177" y="77.34117647058824" width="92.20588235294117" height="225.31764705882352" fill="none" stroke="rgba(255,255,255,0.6)" stroke-width="3"/><rect x="233.30882352941177" y="138.81176470588235" width="30.735294117647058" height="102.37647058823529" fill="none" stroke="rgba(255,255,255,0.5)" stroke-width="2.5"/><rect x="222.13235294117646" y="169.54705882352943" width="11.176470588235293" height="40.90588235294118" fill="none" stroke="rgba(255,255,255,0.8)" stroke-width="2.5"/><circle cx="294.77941176470586" cy="190" r="4" fill="#fff"/><path d="M 325.5147058823529 149.13608911517684 A 51.13235294117647 51.13235294117647 0 0 1 325.5147058823529 230.86391088482316" fill="none" stroke="rgba(255,255,255,0.55)" stroke-width="3"/></g></g></svg>
