<?xml version="1.0" encoding="UTF-8"?>
<svg viewBox="0 0 800 420" role="img" aria-labelledby="landscape-pitch-template-title" class="w-full h-auto max-h-[260px]" xmlns="http://www.w3.org/2000/svg" xmlns:xlink="http://www.w3.org/1999/xlink"><title id="landscape-pitch-template-title">Liggende bane – hel</title><defs><linearGradient id="pitchGradient-landscape-template" x1="0%" y1="0%" x2="0%" y2="100%"><stop offset="0%" stop-color="#3b7d3c"/><stop offset="100%" stop-color="#226030"/></linearGradient><pattern id="pitchGrass-landscape-template" width="8" height="8" patternUnits="userSpaceOnUse"><rect width="8" height="8" fill="rgba(255,255,255,0.04)"/><rect width="8" height="4" fill="rgba(255,255,255,0.02)"/></pattern></defs><rect width="800" height="420" rx="24" fill="url(#pitchGradient-landscape-template)"/><rect width="800" height="420" rx="24" fill="url(#pitchGrass-landscape-template)"/><g transform="translate(20, 20)"><rect x="86.61764705882354" y="0" width="586.7647058823529" height="380" fill="none" stroke="rgba(255,255,255,0.55)" stroke-width="3" rx="2"/><g><line x1="380" y1="0" x2="380" y2="380" stroke="rgba(255,255,255,0.55)" stroke-width="3"/><circle cx="380" cy="190" r="51.13235294117647" fill="none" stroke="rgba(255,255,255,0.55)" stroke-width="3"/><circle cx="380" cy="190" r="4" fill="#fff"/><rect x="86.61764705882354" y="77.34117647058824" width="92.20588235294117" height="225.31764705882352" fill="none" stroke="rgba(255,255,255,0.6)" stroke-width="3"/><rect x="86.61764705882354" y="138.81176470588235" width="30.735294117647058" height="102.37647058823529" fill="none" stroke="rgba(255,255,255,0.5)" stroke-width="2.5"/><rect x="75.44117647058825" y="169.54705882352943" width="11.176470588235293" height="40.90588235294118" fill="none" stroke="rgba(255,255,255,0.8)" stroke-width="2.5"/><circle cx="148.08823529411765" cy="190" r="4" fill="#fff"/><path d="M 178.8235294117647 149.13608911517684 A 51.13235294117647 51.13235294117647 0 0 1 178.8235294117647 230.86391088482316" fill="none" stroke="rgba(255,255,255,0.45)" stroke-width="2.5"/><rect x="581.1764705882352" y="77.34117647058824" width="92.20588235294117" height="225.31764705882352" fill="none" stroke="rgba(255,255,255,0.6)" stroke-width="3"/><rect x="642.6470588235294" y="138.81176470588235" width="30.735294117647058" height="102.37647058823529" fill="none" stroke="rgba(255,255,255,0.5)" stroke-width="2.5"/><rect x="673.3823529411765" y="169.54705882352943" width="11.176470588235293" height="40.90588235294118" fill="none" stroke="rgba(255,255,255,0.8)" stroke-width="2.5"/><circle cx="611.9117647058823" cy="190" r="4" fill="#fff"/><path d="M 581.1764705882352 149.13608911517684 A 51.13235294117647 51.13235294117647 0 0 0 581.1764705882352 230.86391088482316" fill="none" stroke="rgba(255,255,255,0.45)" stroke-width="2.5"/></g></g></svg>
