<?xml version="1.0" encoding="UTF-8"?>
<svg viewBox="0 0 800 420" role="img" aria-labelledby="scoring-zones-template-title" class="w-full h-auto max-h-[260px]" xmlns="http://www.w3.org/2000/svg" xmlns:xlink="http://www.w3.org/1999/xlink"><title id="scoring-zones-template-title">Scoringssoner – mal</title><defs><linearGradient id="pitchGradient-scoring-template" x1="0%" y1="0%" x2="0%" y2="100%"><stop offset="0%" stop-color="#3b7d3c"/><stop offset="100%" stop-color="#226030"/></linearGradient><pattern id="pitchGrass-scoring-template" width="8" height="8" patternUnits="userSpaceOnUse"><rect width="8" height="8" fill="rgba(255,255,255,0.04)"/><rect width="8" height="4" fill="rgba(255,255,255,0.02)"/></pattern></defs><rect width="800" height="420" rx="24" fill="url(#pitchGradient-scoring-template)"/><rect width="800" height="420" rx="24" fill="url(#pitchGrass-scoring-template)"/><g transform="translate(20, 20)"><g><rect x="0" y="0" width="135.5" height="200" fill="rgba(255,255,255,0.06)" stroke="#dc2626" stroke-width="2"/><text x="67.75" y="100" text-anchor="middle" dominant-baseline="middle" fill="#fff" font-size="30" font-weight="700">G</text></g><g><rect x="624.5" y="0" width="135.5" height="200" fill="rgba(255,255,255,0.06)" stroke="#dc2626" stroke-width="2"/><text x="692.25" y="100" text-anchor="middle" dominant-baseline="middle" fill="#fff" font-size="30" font-weight="700">G</text></g><g><rect x="135.5" y="0" width="133.5" height="67" fill="rgba(255,255,255,0.06)" stroke="#dc2626" stroke-width="2"/><text x="202.25" y="33.5" text-anchor="middle" dominant-baseline="middle" fill="#fff" font-size="30" font-weight="700">E</text></g><g><rect x="269" y="0" width="86.5" height="67" fill="rgba(255,255,255,0.15)" stroke="#dc2626" stroke-width="2"/><text x="312.25" y="33.5" text-anchor="middle" dominant-baseline="middle" fill="#fff" font-size="18" font-weight="700">A/B</text></g><g><rect x="355.5" y="0" width="49" height="67" fill="rgba(255,255,255,0.15)" stroke="#dc2626" stroke-width="2"/><text x="380" y="33.5" text-anchor="middle" dominant-baseline="middle" fill="#fff" font-size="30" font-weight="700">C</text></g><g><rect x="404.5" y="0" width="86.5" height="67" fill="rgba(255,255,255,0.15)" stroke="#dc2626" stroke-width="2"/><text x="447.75" y="33.5" text-anchor="middle" dominant-baseline="middle" fill="#fff" font-size="18" font-weight="700">A/B</text></g><g><rect x="491" y="0" width="133.5" height="67" fill="rgba(255,255,255,0.06)" stroke="#dc2626" stroke-width="2"/><text x="557.75" y="33.5" text-anchor="middle" dominant-baseline="middle" fill="#fff" font-size="30" font-weight="700">E</text></g><g><rect x="135.5" y="67" width="133.5" height="133" fill="rgba(255,255,255,0.06)" stroke="#dc2626" stroke-width="2"/><text x="202.25" y="133.5" text-anchor="middle" dominant-baseline="middle" fill="#fff" font-size="30" font-weight="700">F</text></g><g><rect x="269" y="67" width="222" height="133" fill="rgba(255,255,255,0.15)" stroke="#dc2626" stroke-width="2"/><text x="380" y="133.5" text-anchor="middle" dominant-baseline="middle" fill="#fff" font-size="30" font-weight="700">D</text></g><g><rect x="491" y="67" width="133.5" height="133" fill="rgba(255,255,255,0.06)" stroke="#dc2626" stroke-width="2"/><text x="557.75" y="133.5" text-anchor="middle" dominant-baseline="middle" fill="#fff" font-size="30" font-weight="700">F</text></g><g><rect x="0" y="200" width="760" height="180" fill="rgba(255,255,255,0.06)" stroke="#dc2626" stroke-width="2"/><text x="380" y="290" text-anchor="middle" dominant-baseline="middle" fill="#fff" font-size="30" font-weight="700">G</text></g><rect x="0" y="0" width="760" height="380" fill="none" stroke="rgba(255,255,255,0.4)" stroke-width="3"/><rect x="330" y="-8" width="100" height="10" fill="#fff" stroke="rgba(255,255,255,0.8)" stroke-width="2"/><rect x="269" y="0" width="222" height="67" fill="none" stroke="rgba(255,255,255,0.7)" stroke-width="2"/><rect x="135.5" y="0" width="489" height="200" fill="none" stroke="rgba(255,255,255,0.8)" stroke-width="3"/><circle cx="380" cy="133.33333333333331" r="4" fill="#fff"/><path d="M 291.36376586386046 200 A 110.9090909090909 110.9090909090909 0 0 0 468.63623413613954 200" fill="none" stroke="rgba(255,255,255,0.6)" stroke-width="2"/></g></svg>
